<?xml version="1.0" standalone="no"?>
<!DOCTYPE svg PUBLIC "-//W3C//DTD SVG 20010904//EN"
 "http://www.w3.org/TR/2001/REC-SVG-20010904/DTD/svg10.dtd">
<svg version="1.0" xmlns="http://www.w3.org/2000/svg"
 width="10.000000pt" height="10.000000pt" viewBox="0 0 10.000000 10.000000"
 preserveAspectRatio="xMidYMid meet">

<g transform="translate(0.000000,10.000000) scale(0.100000,-0.100000)"
fill="#000000" stroke="none">
<path d="M16 81 c-19 -21 -13 -45 19 -71 14 -11 19 -10 38 8 l21 22 -20 27
c-26 35 -37 38 -58 14z m18 -13 c-17 -20 -17 -21 -1 -9 16 12 20 12 34 -2 13
-13 14 -19 3 -31 -7 -9 -17 -16 -23 -16 -5 0 -2 10 9 22 17 20 17 21 1 9 -16
-12 -20 -12 -34 2 -13 13 -14 19 -3 31 7 9 17 16 23 16 5 0 2 -10 -9 -22z"/>
</g>
</svg>
